<mxfile host="Electron" modified="2024-07-04T12:26:18.251Z" agent="Mozilla/5.0 (Windows NT 10.0; Win64; x64) AppleWebKit/537.36 (KHTML, like Gecko) draw.io/24.6.4 Chrome/124.0.6367.207 Electron/30.0.6 Safari/537.36" etag="P5-3UYWq5_v1K6trY68g" version="24.6.4" type="device">
  <diagram name="Página-1" id="Ui5XNwaK68K2g1F7aarB">
    <mxGraphModel dx="9759" dy="1385" grid="1" gridSize="10" guides="1" tooltips="1" connect="1" arrows="1" fold="1" page="1" pageScale="1" pageWidth="827" pageHeight="1169" math="0" shadow="0">
      <root>
        <mxCell id="0" />
        <mxCell id="1" parent="0" />
        <mxCell id="QbFzCAQRqSeKXyy2VyR1-1" value="" style="curved=1;endArrow=none;html=1;rounded=0;strokeWidth=14;strokeColor=#3399FF;endFill=0;" edge="1" parent="1">
          <mxGeometry width="50" height="50" relative="1" as="geometry">
            <mxPoint x="-6350" y="4380" as="sourcePoint" />
            <mxPoint x="-4830" y="2250" as="targetPoint" />
            <Array as="points">
              <mxPoint x="-5000" y="4050" />
              <mxPoint x="-5430" y="3640" />
              <mxPoint x="-4630" y="3220" />
            </Array>
          </mxGeometry>
        </mxCell>
        <mxCell id="QbFzCAQRqSeKXyy2VyR1-2" value="&lt;font size=&quot;1&quot; color=&quot;#00cc00&quot;&gt;&lt;b style=&quot;font-size: 30px;&quot;&gt;EMERGÈNCIA&lt;/b&gt;&lt;/font&gt;" style="rounded=0;whiteSpace=wrap;html=1;dashed=1;strokeWidth=4;strokeColor=#00CC00;labelPosition=center;verticalLabelPosition=top;align=center;verticalAlign=bottom;fontSize=22;" vertex="1" parent="1">
          <mxGeometry x="-2770" y="3650" width="400" height="100" as="geometry" />
        </mxCell>
        <mxCell id="QbFzCAQRqSeKXyy2VyR1-3" value="&lt;font size=&quot;1&quot; color=&quot;#00cc00&quot;&gt;&lt;b style=&quot;font-size: 30px;&quot;&gt;EMERGÈNCIA&lt;/b&gt;&lt;/font&gt;" style="rounded=0;whiteSpace=wrap;html=1;dashed=1;strokeWidth=4;strokeColor=#00CC00;labelPosition=center;verticalLabelPosition=bottom;align=center;verticalAlign=top;fontSize=22;" vertex="1" parent="1">
          <mxGeometry x="-2195" y="3220" width="370" height="150" as="geometry" />
        </mxCell>
        <object label="&lt;font style=&quot;font-size: 25px;&quot;&gt;Cabal:&lt;/font&gt;" id="QbFzCAQRqSeKXyy2VyR1-4">
          <mxCell style="edgeStyle=orthogonalEdgeStyle;rounded=0;orthogonalLoop=1;jettySize=auto;html=1;shape=link;strokeWidth=2;" edge="1" parent="1" target="QbFzCAQRqSeKXyy2VyR1-15">
            <mxGeometry x="-0.0029" relative="1" as="geometry">
              <mxPoint x="-6280" y="2870" as="sourcePoint" />
              <mxPoint as="offset" />
            </mxGeometry>
          </mxCell>
        </object>
        <object label="&lt;font style=&quot;font-size: 30px;&quot;&gt;Sallent&lt;/font&gt;" tooltip="" link="http://10.8.17.54:1881/home" linkTarget="_blank" id="QbFzCAQRqSeKXyy2VyR1-5">
          <mxCell style="shape=mxgraph.pid.vessels.tank,_vessel;html=1;pointerEvents=1;align=center;verticalLabelPosition=top;verticalAlign=bottom;dashed=0;strokeWidth=5;fillColor=none;shadow=0;labelBackgroundColor=none;labelPosition=center;fontStyle=1" vertex="1" parent="1">
            <mxGeometry x="-6330" y="2690" width="100" height="70" as="geometry" />
          </mxCell>
        </object>
        <mxCell id="QbFzCAQRqSeKXyy2VyR1-6" style="rounded=0;orthogonalLoop=1;jettySize=auto;html=1;exitX=0.5;exitY=1;exitDx=0;exitDy=0;entryX=1;entryY=0.25;entryDx=0;entryDy=0;shape=link;" edge="1" parent="1" source="QbFzCAQRqSeKXyy2VyR1-7">
          <mxGeometry relative="1" as="geometry">
            <mxPoint x="-5600" y="3147.5" as="targetPoint" />
          </mxGeometry>
        </mxCell>
        <mxCell id="QbFzCAQRqSeKXyy2VyR1-7" value="" style="rounded=0;whiteSpace=wrap;html=1;rotation=-90;strokeWidth=1;" vertex="1" parent="1">
          <mxGeometry x="-5950" y="3211.25" width="155" height="127.5" as="geometry" />
        </mxCell>
        <UserObject label="" link="https://www.aiguesmanresa.cat/" id="QbFzCAQRqSeKXyy2VyR1-8">
          <mxCell style="verticalLabelPosition=bottom;align=center;html=1;verticalAlign=top;pointerEvents=1;dashed=0;shape=mxgraph.pid2valves.valve;valveType=gate;rotation=-90;strokeWidth=7;" vertex="1" parent="1">
            <mxGeometry x="-5927.862129120879" y="3228.435" width="110.7142857142857" height="95.625" as="geometry" />
          </mxCell>
        </UserObject>
        <object label="&lt;span style=&quot;font-size: 30px;&quot;&gt;&lt;font style=&quot;font-size: 30px;&quot;&gt;Aigua Crua1&lt;/font&gt;&lt;/span&gt;" link="http://iot.aiguesmanresa.com:3000/d/cdn5bojpjgjy8e/c-sant-antoni-santa-maria-olo?orgId=1&amp;from=1716076800000&amp;to=1719730800000" id="QbFzCAQRqSeKXyy2VyR1-9">
          <mxCell style="shape=mxgraph.pid.vessels.tank,_vessel;html=1;pointerEvents=1;align=left;verticalLabelPosition=top;verticalAlign=top;dashed=0;strokeWidth=5;labelPosition=left;fontSize=30;fontStyle=1" vertex="1" parent="1">
            <mxGeometry x="-5600" y="3110" width="110" height="70" as="geometry" />
          </mxCell>
        </object>
        <mxCell id="QbFzCAQRqSeKXyy2VyR1-10" style="edgeStyle=orthogonalEdgeStyle;shape=link;rounded=0;orthogonalLoop=1;jettySize=auto;html=1;entryX=0;entryY=0.5;entryDx=0;entryDy=0;" edge="1" parent="1" source="QbFzCAQRqSeKXyy2VyR1-11" target="QbFzCAQRqSeKXyy2VyR1-18">
          <mxGeometry relative="1" as="geometry" />
        </mxCell>
        <object label="&lt;font style=&quot;font-size: 30px;&quot;&gt;Aigua Crua2&lt;/font&gt;" link="http://10.8.17.56:1881/" id="QbFzCAQRqSeKXyy2VyR1-11">
          <mxCell style="shape=mxgraph.pid.vessels.tank,_vessel;html=1;pointerEvents=1;align=right;verticalLabelPosition=top;verticalAlign=top;dashed=0;strokeWidth=5;labelPosition=right;fontStyle=1;fontSize=30;" vertex="1" parent="1">
            <mxGeometry x="-5493" y="3110" width="100" height="70" as="geometry" />
          </mxCell>
        </object>
        <mxCell id="QbFzCAQRqSeKXyy2VyR1-12" style="edgeStyle=orthogonalEdgeStyle;rounded=0;orthogonalLoop=1;jettySize=auto;html=1;shape=link;" edge="1" parent="1" source="QbFzCAQRqSeKXyy2VyR1-15" target="QbFzCAQRqSeKXyy2VyR1-17">
          <mxGeometry relative="1" as="geometry" />
        </mxCell>
        <object label="" id="QbFzCAQRqSeKXyy2VyR1-13">
          <mxCell style="edgeStyle=none;shape=link;rounded=0;orthogonalLoop=1;jettySize=auto;html=1;elbow=vertical;" edge="1" parent="1">
            <mxGeometry relative="1" as="geometry">
              <Array as="points">
                <mxPoint x="-6480" y="3280" />
                <mxPoint x="-6480" y="3580" />
              </Array>
              <mxPoint x="-6330" y="3280" as="sourcePoint" />
              <mxPoint x="-4950" y="3580" as="targetPoint" />
            </mxGeometry>
          </mxCell>
        </object>
        <mxCell id="QbFzCAQRqSeKXyy2VyR1-14" value="&lt;font style=&quot;font-size: 25px;&quot;&gt;Cabal:&lt;/font&gt;" style="edgeLabel;html=1;align=center;verticalAlign=middle;resizable=0;points=[];" vertex="1" connectable="0" parent="QbFzCAQRqSeKXyy2VyR1-13">
          <mxGeometry x="0.138" y="2" relative="1" as="geometry">
            <mxPoint as="offset" />
          </mxGeometry>
        </mxCell>
        <object label="&lt;font style=&quot;font-size: 30px;&quot;&gt;Etap B-L 1&lt;/font&gt;" link="http://iot.aiguesmanresa.com:3000/d/fca8985f-d3aa-46d7-8357-9b98f716f224/2-marganell-diposit-de-can-prat?orgId=1&amp;refresh=5s" id="QbFzCAQRqSeKXyy2VyR1-15">
          <mxCell style="shape=mxgraph.pid.vessels.tank,_vessel;html=1;pointerEvents=1;align=center;verticalLabelPosition=top;verticalAlign=bottom;dashed=0;strokeWidth=5;fillColor=none;labelPosition=center;fontStyle=1" vertex="1" parent="1">
            <mxGeometry x="-6330" y="3240" width="100" height="70" as="geometry" />
          </mxCell>
        </object>
        <mxCell id="QbFzCAQRqSeKXyy2VyR1-16" style="edgeStyle=orthogonalEdgeStyle;shape=link;rounded=0;orthogonalLoop=1;jettySize=auto;html=1;entryX=0.5;entryY=0;entryDx=0;entryDy=0;" edge="1" parent="1" source="QbFzCAQRqSeKXyy2VyR1-17" target="QbFzCAQRqSeKXyy2VyR1-7">
          <mxGeometry relative="1" as="geometry" />
        </mxCell>
        <object label="&lt;font style=&quot;font-size: 30px;&quot;&gt;Etap B-L 2&lt;/font&gt;" link="http://iot.aiguesmanresa.com:3000/d/edn1vgu8qubk0a/1-resums?orgId=1" id="QbFzCAQRqSeKXyy2VyR1-17">
          <mxCell style="shape=mxgraph.pid.vessels.tank,_vessel;html=1;pointerEvents=1;align=center;verticalLabelPosition=top;verticalAlign=bottom;dashed=0;strokeWidth=5;fillColor=none;labelPosition=center;fontStyle=1" vertex="1" parent="1">
            <mxGeometry x="-6130" y="3240" width="100" height="70" as="geometry" />
          </mxCell>
        </object>
        <mxCell id="QbFzCAQRqSeKXyy2VyR1-18" value="" style="rounded=0;whiteSpace=wrap;html=1;" vertex="1" parent="1">
          <mxGeometry x="-5310" y="3340" width="110" height="100" as="geometry" />
        </mxCell>
        <object label="" id="QbFzCAQRqSeKXyy2VyR1-19">
          <mxCell style="triangle;whiteSpace=wrap;html=1;strokeWidth=7;rotation=-180;" vertex="1" parent="1">
            <mxGeometry x="-5295" y="3345" width="87.5" height="90" as="geometry" />
          </mxCell>
        </object>
        <mxCell id="QbFzCAQRqSeKXyy2VyR1-20" value="" style="rounded=0;whiteSpace=wrap;html=1;" vertex="1" parent="1">
          <mxGeometry x="-5200" y="3340" width="120" height="100" as="geometry" />
        </mxCell>
        <mxCell id="QbFzCAQRqSeKXyy2VyR1-21" style="edgeStyle=orthogonalEdgeStyle;rounded=0;orthogonalLoop=1;jettySize=auto;html=1;shape=link;width=20;strokeWidth=2;" edge="1" parent="1">
          <mxGeometry relative="1" as="geometry">
            <mxPoint x="-4980" y="3389.44" as="targetPoint" />
            <mxPoint x="-5100" y="3389.44" as="sourcePoint" />
            <Array as="points">
              <mxPoint x="-5010" y="3390" />
              <mxPoint x="-5010" y="3390" />
            </Array>
          </mxGeometry>
        </mxCell>
        <object label="" id="QbFzCAQRqSeKXyy2VyR1-22">
          <mxCell style="ellipse;whiteSpace=wrap;html=1;aspect=fixed;strokeWidth=7;" vertex="1" parent="1">
            <mxGeometry x="-5180" y="3349" width="80" height="80" as="geometry" />
          </mxCell>
        </object>
        <mxCell id="QbFzCAQRqSeKXyy2VyR1-23" style="edgeStyle=none;rounded=0;orthogonalLoop=1;jettySize=auto;html=1;exitX=0;exitY=0.5;exitDx=0;exitDy=0;elbow=vertical;entryX=0.5;entryY=1.143;entryDx=0;entryDy=0;entryPerimeter=0;dashed=1;strokeWidth=6;" edge="1" parent="1" source="QbFzCAQRqSeKXyy2VyR1-7" target="QbFzCAQRqSeKXyy2VyR1-15">
          <mxGeometry relative="1" as="geometry">
            <Array as="points">
              <mxPoint x="-5872" y="3440" />
              <mxPoint x="-6280" y="3440" />
            </Array>
            <mxPoint x="-6300" y="3410" as="targetPoint" />
          </mxGeometry>
        </mxCell>
        <mxCell id="QbFzCAQRqSeKXyy2VyR1-24" style="edgeStyle=none;shape=link;rounded=0;orthogonalLoop=1;jettySize=auto;html=1;elbow=vertical;" edge="1" parent="1" source="QbFzCAQRqSeKXyy2VyR1-25">
          <mxGeometry relative="1" as="geometry">
            <mxPoint x="-4500" y="3660" as="targetPoint" />
          </mxGeometry>
        </mxCell>
        <object label="&lt;font style=&quot;font-size: 30px;&quot;&gt;Dipòsit Cabrianes&lt;/font&gt;" id="QbFzCAQRqSeKXyy2VyR1-25">
          <mxCell style="shape=mxgraph.pid.vessels.tank,_vessel;html=1;pointerEvents=1;align=center;verticalLabelPosition=top;verticalAlign=bottom;dashed=0;strokeWidth=5;labelPosition=center;fontSize=30;fontStyle=1" vertex="1" parent="1">
            <mxGeometry x="-4950" y="3540" width="100" height="70" as="geometry" />
          </mxCell>
        </object>
        <mxCell id="QbFzCAQRqSeKXyy2VyR1-26" value="" style="rounded=0;whiteSpace=wrap;html=1;" vertex="1" parent="1">
          <mxGeometry x="-4300" y="3550" width="110" height="100" as="geometry" />
        </mxCell>
        <object label="" id="QbFzCAQRqSeKXyy2VyR1-27">
          <mxCell style="triangle;whiteSpace=wrap;html=1;strokeWidth=7;rotation=0;" vertex="1" parent="1">
            <mxGeometry x="-4285" y="3555" width="87.5" height="90" as="geometry" />
          </mxCell>
        </object>
        <mxCell id="QbFzCAQRqSeKXyy2VyR1-28" style="edgeStyle=none;shape=link;rounded=0;orthogonalLoop=1;jettySize=auto;html=1;elbow=vertical;entryX=0;entryY=0.5;entryDx=0;entryDy=0;" edge="1" parent="1" source="QbFzCAQRqSeKXyy2VyR1-29" target="QbFzCAQRqSeKXyy2VyR1-26">
          <mxGeometry relative="1" as="geometry">
            <mxPoint x="-4500" y="3560" as="targetPoint" />
            <Array as="points">
              <mxPoint x="-4500" y="3720" />
              <mxPoint x="-4500" y="3600" />
            </Array>
          </mxGeometry>
        </mxCell>
        <mxCell id="QbFzCAQRqSeKXyy2VyR1-29" value="" style="rounded=0;whiteSpace=wrap;html=1;" vertex="1" parent="1">
          <mxGeometry x="-4300" y="3670" width="110" height="100" as="geometry" />
        </mxCell>
        <mxCell id="QbFzCAQRqSeKXyy2VyR1-30" style="edgeStyle=none;shape=link;rounded=0;orthogonalLoop=1;jettySize=auto;html=1;elbow=vertical;" edge="1" parent="1" source="QbFzCAQRqSeKXyy2VyR1-31" target="QbFzCAQRqSeKXyy2VyR1-38">
          <mxGeometry relative="1" as="geometry" />
        </mxCell>
        <object label="" id="QbFzCAQRqSeKXyy2VyR1-31">
          <mxCell style="triangle;whiteSpace=wrap;html=1;strokeWidth=7;rotation=0;" vertex="1" parent="1">
            <mxGeometry x="-4285" y="3675" width="87.5" height="90" as="geometry" />
          </mxCell>
        </object>
        <mxCell id="QbFzCAQRqSeKXyy2VyR1-32" style="edgeStyle=none;shape=link;rounded=0;orthogonalLoop=1;jettySize=auto;html=1;elbow=vertical;" edge="1" parent="1" source="QbFzCAQRqSeKXyy2VyR1-33">
          <mxGeometry relative="1" as="geometry">
            <mxPoint x="-4145" y="2895" as="targetPoint" />
          </mxGeometry>
        </mxCell>
        <object label="&lt;font style=&quot;font-size: 30px;&quot;&gt;Dipòsit PI el Soler&lt;/font&gt;" id="QbFzCAQRqSeKXyy2VyR1-33">
          <mxCell style="shape=mxgraph.pid.vessels.tank,_vessel;html=1;pointerEvents=1;align=center;verticalLabelPosition=top;verticalAlign=bottom;dashed=0;strokeWidth=5;labelPosition=center;fontSize=30;fontStyle=1" vertex="1" parent="1">
            <mxGeometry x="-4385" y="2860" width="100" height="70" as="geometry" />
          </mxCell>
        </object>
        <object label="&lt;font style=&quot;font-size: 30px;&quot;&gt;Dipòsit de Turic 2&lt;/font&gt;" id="QbFzCAQRqSeKXyy2VyR1-34">
          <mxCell style="shape=mxgraph.pid.vessels.tank,_vessel;html=1;pointerEvents=1;align=center;verticalLabelPosition=top;verticalAlign=bottom;dashed=0;strokeWidth=5;rotation=0;labelPosition=center;fontStyle=1;fontSize=30;" vertex="1" parent="1">
            <mxGeometry x="-3940" y="2610" width="100" height="60" as="geometry" />
          </mxCell>
        </object>
        <mxCell id="QbFzCAQRqSeKXyy2VyR1-35" style="edgeStyle=none;shape=link;rounded=0;orthogonalLoop=1;jettySize=auto;html=1;elbow=vertical;" edge="1" parent="1" source="QbFzCAQRqSeKXyy2VyR1-72">
          <mxGeometry relative="1" as="geometry">
            <mxPoint x="-4145" y="2895" as="targetPoint" />
          </mxGeometry>
        </mxCell>
        <object label="&lt;font style=&quot;font-size: 30px;&quot;&gt;Dipòsit Horta d&#39;Avinyó&lt;/font&gt;" id="QbFzCAQRqSeKXyy2VyR1-36">
          <mxCell style="shape=mxgraph.pid.vessels.tank,_vessel;html=1;pointerEvents=1;align=center;verticalLabelPosition=top;verticalAlign=bottom;dashed=0;strokeWidth=5;labelPosition=center;fontStyle=1;fontSize=30;" vertex="1" parent="1">
            <mxGeometry x="-3760" y="2990" width="100" height="70" as="geometry" />
          </mxCell>
        </object>
        <mxCell id="QbFzCAQRqSeKXyy2VyR1-37" style="edgeStyle=none;shape=link;rounded=0;orthogonalLoop=1;jettySize=auto;html=1;entryX=0;entryY=0.5;entryDx=0;entryDy=0;elbow=vertical;" edge="1" parent="1" source="QbFzCAQRqSeKXyy2VyR1-38" target="QbFzCAQRqSeKXyy2VyR1-45">
          <mxGeometry relative="1" as="geometry" />
        </mxCell>
        <object label="&lt;font style=&quot;font-size: 20px;&quot;&gt;.&lt;/font&gt;" id="QbFzCAQRqSeKXyy2VyR1-38">
          <mxCell style="shape=mxgraph.pid.vessels.tank,_vessel;html=1;pointerEvents=1;align=center;verticalLabelPosition=top;verticalAlign=bottom;dashed=0;strokeWidth=5;labelPosition=center;fontStyle=1" vertex="1" parent="1">
            <mxGeometry x="-3547.19" y="3678" width="100" height="70" as="geometry" />
          </mxCell>
        </object>
        <mxCell id="QbFzCAQRqSeKXyy2VyR1-39" style="edgeStyle=none;rounded=0;orthogonalLoop=1;jettySize=auto;html=1;elbow=vertical;strokeWidth=5;startArrow=classic;startFill=1;endArrow=none;endFill=0;entryX=0.5;entryY=1;entryDx=0;entryDy=0;jumpStyle=arc;" edge="1" parent="1" source="QbFzCAQRqSeKXyy2VyR1-40" target="QbFzCAQRqSeKXyy2VyR1-77">
          <mxGeometry relative="1" as="geometry">
            <mxPoint x="-3360" y="3940" as="targetPoint" />
            <Array as="points">
              <mxPoint x="-3650" y="3920" />
              <mxPoint x="-3350" y="3920" />
            </Array>
          </mxGeometry>
        </mxCell>
        <object label="&lt;font style=&quot;font-size: 30px;&quot;&gt;Dipòsit de Can Vila&lt;/font&gt;" id="QbFzCAQRqSeKXyy2VyR1-40">
          <mxCell style="shape=mxgraph.pid.vessels.tank,_vessel;html=1;pointerEvents=1;align=center;verticalLabelPosition=top;verticalAlign=bottom;dashed=0;strokeWidth=5;labelPosition=center;fontStyle=1;fontSize=30;" vertex="1" parent="1">
            <mxGeometry x="-3700" y="3354" width="100" height="70" as="geometry" />
          </mxCell>
        </object>
        <object label="&lt;font style=&quot;font-size: 30px;&quot;&gt;Dipòsit Pirineu Bll&lt;/font&gt;" id="QbFzCAQRqSeKXyy2VyR1-41">
          <mxCell style="shape=mxgraph.pid.vessels.tank,_vessel;html=1;pointerEvents=1;align=center;verticalLabelPosition=top;verticalAlign=bottom;dashed=0;strokeWidth=5;fontSize=30;labelPosition=center;fontStyle=1" vertex="1" parent="1">
            <mxGeometry x="-2990" y="3450" width="100" height="70" as="geometry" />
          </mxCell>
        </object>
        <mxCell id="QbFzCAQRqSeKXyy2VyR1-42" style="edgeStyle=none;shape=link;rounded=0;orthogonalLoop=1;jettySize=auto;html=1;elbow=vertical;exitX=1.047;exitY=0.626;exitDx=0;exitDy=0;exitPerimeter=0;" edge="1" parent="1">
          <mxGeometry relative="1" as="geometry">
            <mxPoint x="-3110" y="3220" as="targetPoint" />
            <mxPoint x="-2871.1800000000003" y="2970.3" as="sourcePoint" />
            <Array as="points">
              <mxPoint x="-2871" y="2940" />
              <mxPoint x="-3010" y="2940" />
              <mxPoint x="-3110" y="2940" />
              <mxPoint x="-3110" y="3025" />
            </Array>
          </mxGeometry>
        </mxCell>
        <mxCell id="QbFzCAQRqSeKXyy2VyR1-43" style="edgeStyle=none;shape=link;rounded=0;orthogonalLoop=1;jettySize=auto;html=1;exitX=1;exitY=0.5;exitDx=0;exitDy=0;elbow=vertical;entryX=-0.048;entryY=0.482;entryDx=0;entryDy=0;entryPerimeter=0;" edge="1" parent="1" source="QbFzCAQRqSeKXyy2VyR1-44" target="QbFzCAQRqSeKXyy2VyR1-41">
          <mxGeometry relative="1" as="geometry">
            <mxPoint x="-3110" y="3500" as="targetPoint" />
            <Array as="points">
              <mxPoint x="-3110" y="3670" />
              <mxPoint x="-3110" y="3484" />
            </Array>
          </mxGeometry>
        </mxCell>
        <mxCell id="QbFzCAQRqSeKXyy2VyR1-44" value="" style="rounded=0;whiteSpace=wrap;html=1;" vertex="1" parent="1">
          <mxGeometry x="-3308" y="3670" width="100" height="90" as="geometry" />
        </mxCell>
        <object label="" id="QbFzCAQRqSeKXyy2VyR1-45">
          <mxCell style="triangle;whiteSpace=wrap;html=1;strokeWidth=7;rotation=0;" vertex="1" parent="1">
            <mxGeometry x="-3294.87" y="3678" width="73.75" height="70" as="geometry" />
          </mxCell>
        </object>
        <mxCell id="QbFzCAQRqSeKXyy2VyR1-46" value="" style="rounded=0;whiteSpace=wrap;html=1;" vertex="1" parent="1">
          <mxGeometry x="-2880" y="3449" width="100" height="80" as="geometry" />
        </mxCell>
        <object label="" id="QbFzCAQRqSeKXyy2VyR1-47">
          <mxCell style="triangle;whiteSpace=wrap;html=1;strokeWidth=7;rotation=0;" vertex="1" parent="1">
            <mxGeometry x="-2866.87" y="3459" width="73.75" height="60" as="geometry" />
          </mxCell>
        </object>
        <mxCell id="QbFzCAQRqSeKXyy2VyR1-48" style="edgeStyle=none;shape=link;rounded=0;orthogonalLoop=1;jettySize=auto;html=1;elbow=vertical;" edge="1" parent="1" source="QbFzCAQRqSeKXyy2VyR1-79">
          <mxGeometry relative="1" as="geometry">
            <mxPoint x="-3110" y="3490" as="targetPoint" />
            <Array as="points" />
          </mxGeometry>
        </mxCell>
        <mxCell id="QbFzCAQRqSeKXyy2VyR1-49" style="edgeStyle=none;shape=link;rounded=0;orthogonalLoop=1;jettySize=auto;html=1;elbow=vertical;entryX=0.48;entryY=0.979;entryDx=0;entryDy=0;entryPerimeter=0;" edge="1" parent="1" source="QbFzCAQRqSeKXyy2VyR1-50">
          <mxGeometry relative="1" as="geometry">
            <mxPoint x="-2846.4700000000003" y="3027" as="targetPoint" />
            <Array as="points">
              <mxPoint x="-2790" y="3215" />
              <mxPoint x="-2790" y="3027" />
            </Array>
          </mxGeometry>
        </mxCell>
        <object label="." id="QbFzCAQRqSeKXyy2VyR1-50">
          <mxCell style="shape=mxgraph.pid.vessels.tank,_vessel;html=1;pointerEvents=1;align=center;verticalLabelPosition=top;verticalAlign=bottom;dashed=0;strokeWidth=5;fontSize=30;labelPosition=center;" vertex="1" parent="1">
            <mxGeometry x="-3050" y="3180" width="100" height="70" as="geometry" />
          </mxCell>
        </object>
        <mxCell id="QbFzCAQRqSeKXyy2VyR1-51" style="edgeStyle=none;shape=link;rounded=0;orthogonalLoop=1;jettySize=auto;html=1;entryX=1;entryY=0.5;entryDx=0;entryDy=0;elbow=vertical;strokeWidth=2;" edge="1" parent="1" source="QbFzCAQRqSeKXyy2VyR1-53" target="QbFzCAQRqSeKXyy2VyR1-58">
          <mxGeometry relative="1" as="geometry">
            <Array as="points">
              <mxPoint x="-2335" y="2875" />
            </Array>
          </mxGeometry>
        </mxCell>
        <mxCell id="QbFzCAQRqSeKXyy2VyR1-52" style="edgeStyle=none;rounded=0;orthogonalLoop=1;jettySize=auto;html=1;elbow=vertical;fontSize=21;strokeWidth=4;dashed=1;jumpStyle=arc;jumpSize=9;" edge="1" parent="1" source="QbFzCAQRqSeKXyy2VyR1-53">
          <mxGeometry relative="1" as="geometry">
            <mxPoint x="-2255" y="3580" as="targetPoint" />
            <Array as="points">
              <mxPoint x="-2515" y="3580" />
            </Array>
          </mxGeometry>
        </mxCell>
        <object label="&lt;font style=&quot;font-size: 30px;&quot;&gt;Dipòsits del Grau Elevat&amp;nbsp;&lt;/font&gt;" id="QbFzCAQRqSeKXyy2VyR1-53">
          <mxCell style="shape=mxgraph.pid.vessels.tank,_vessel;html=1;pointerEvents=1;align=center;verticalLabelPosition=top;verticalAlign=bottom;dashed=0;strokeWidth=5;labelPosition=center;fontStyle=1" vertex="1" parent="1">
            <mxGeometry x="-2565" y="2840" width="100" height="70" as="geometry" />
          </mxCell>
        </object>
        <mxCell id="QbFzCAQRqSeKXyy2VyR1-54" style="edgeStyle=none;shape=flexArrow;rounded=0;orthogonalLoop=1;jettySize=auto;html=1;elbow=vertical;strokeWidth=2;" edge="1" parent="1" source="QbFzCAQRqSeKXyy2VyR1-60">
          <mxGeometry relative="1" as="geometry">
            <mxPoint x="-2255" y="4050" as="targetPoint" />
          </mxGeometry>
        </mxCell>
        <mxCell id="QbFzCAQRqSeKXyy2VyR1-55" style="edgeStyle=none;rounded=0;orthogonalLoop=1;jettySize=auto;html=1;elbow=vertical;shape=link;strokeWidth=1;" edge="1" parent="1" source="QbFzCAQRqSeKXyy2VyR1-60">
          <mxGeometry relative="1" as="geometry">
            <mxPoint x="-1835" y="3060" as="targetPoint" />
            <Array as="points">
              <mxPoint x="-2255" y="3060" />
            </Array>
          </mxGeometry>
        </mxCell>
        <mxCell id="QbFzCAQRqSeKXyy2VyR1-56" style="edgeStyle=orthogonalEdgeStyle;rounded=0;orthogonalLoop=1;jettySize=auto;html=1;entryX=0;entryY=0.5;entryDx=0;entryDy=0;strokeWidth=3;dashed=1;" edge="1" parent="1" source="QbFzCAQRqSeKXyy2VyR1-60" target="QbFzCAQRqSeKXyy2VyR1-63">
          <mxGeometry relative="1" as="geometry">
            <Array as="points">
              <mxPoint x="-2215" y="3290" />
            </Array>
          </mxGeometry>
        </mxCell>
        <object label="" id="QbFzCAQRqSeKXyy2VyR1-57">
          <mxCell style="group;rotation=-90;" vertex="1" connectable="0" parent="1">
            <mxGeometry x="-2385" y="2930" width="100" height="80" as="geometry" />
          </mxCell>
        </object>
        <mxCell id="QbFzCAQRqSeKXyy2VyR1-58" value="" style="rounded=0;whiteSpace=wrap;html=1;rotation=-90;" vertex="1" parent="QbFzCAQRqSeKXyy2VyR1-57">
          <mxGeometry width="100" height="80" as="geometry" />
        </mxCell>
        <object label="" id="QbFzCAQRqSeKXyy2VyR1-59">
          <mxCell style="triangle;whiteSpace=wrap;html=1;strokeWidth=7;rotation=-90;" vertex="1" parent="QbFzCAQRqSeKXyy2VyR1-57">
            <mxGeometry x="13" y="10" width="73.75" height="60" as="geometry" />
          </mxCell>
        </object>
        <object label="&lt;font style=&quot;font-size: 30px;&quot;&gt;Dipòsit del Grau&lt;/font&gt;" id="QbFzCAQRqSeKXyy2VyR1-60">
          <mxCell style="shape=mxgraph.pid.vessels.tank,_vessel;html=1;pointerEvents=1;align=center;verticalLabelPosition=top;verticalAlign=bottom;dashed=0;strokeWidth=5;labelPosition=center;fontSize=18;fontStyle=1" vertex="1" parent="1">
            <mxGeometry x="-2305" y="3120" width="100" height="70" as="geometry" />
          </mxCell>
        </object>
        <mxCell id="QbFzCAQRqSeKXyy2VyR1-61" value="" style="group;rotation=0;" vertex="1" connectable="0" parent="1">
          <mxGeometry x="-2145" y="3250" width="100" height="80" as="geometry" />
        </mxCell>
        <mxCell id="QbFzCAQRqSeKXyy2VyR1-62" style="edgeStyle=orthogonalEdgeStyle;rounded=0;orthogonalLoop=1;jettySize=auto;html=1;exitX=1;exitY=0.5;exitDx=0;exitDy=0;dashed=1;strokeWidth=3;" edge="1" parent="QbFzCAQRqSeKXyy2VyR1-61" source="QbFzCAQRqSeKXyy2VyR1-63">
          <mxGeometry relative="1" as="geometry">
            <mxPoint x="125" y="-90" as="targetPoint" />
            <Array as="points">
              <mxPoint x="126" y="40" />
              <mxPoint x="126" y="-90" />
            </Array>
          </mxGeometry>
        </mxCell>
        <mxCell id="QbFzCAQRqSeKXyy2VyR1-63" value="" style="rounded=0;whiteSpace=wrap;html=1;rotation=0;" vertex="1" parent="QbFzCAQRqSeKXyy2VyR1-61">
          <mxGeometry width="100" height="80" as="geometry" />
        </mxCell>
        <object label="" id="QbFzCAQRqSeKXyy2VyR1-64">
          <mxCell style="triangle;whiteSpace=wrap;html=1;strokeWidth=7;rotation=0;" vertex="1" parent="QbFzCAQRqSeKXyy2VyR1-61">
            <mxGeometry x="13" y="10" width="73.75" height="60" as="geometry" />
          </mxCell>
        </object>
        <mxCell id="QbFzCAQRqSeKXyy2VyR1-65" style="edgeStyle=none;shape=link;rounded=0;orthogonalLoop=1;jettySize=auto;html=1;exitX=0;exitY=0.5;exitDx=0;exitDy=0;elbow=vertical;entryX=0.025;entryY=0.583;entryDx=0;entryDy=0;entryPerimeter=0;strokeWidth=2;" edge="1" parent="1" source="QbFzCAQRqSeKXyy2VyR1-58" target="QbFzCAQRqSeKXyy2VyR1-60">
          <mxGeometry relative="1" as="geometry">
            <mxPoint x="-2335.636363636364" y="3160" as="targetPoint" />
            <Array as="points">
              <mxPoint x="-2335" y="3161" />
            </Array>
          </mxGeometry>
        </mxCell>
        <mxCell id="QbFzCAQRqSeKXyy2VyR1-66" value="" style="edgeStyle=orthogonalEdgeStyle;rounded=0;orthogonalLoop=1;jettySize=auto;html=1;shape=link;" edge="1" parent="1" source="QbFzCAQRqSeKXyy2VyR1-5">
          <mxGeometry relative="1" as="geometry">
            <mxPoint x="-6280" y="2760" as="sourcePoint" />
            <mxPoint x="-6280" y="2830" as="targetPoint" />
          </mxGeometry>
        </mxCell>
        <mxCell id="QbFzCAQRqSeKXyy2VyR1-67" value="&lt;font style=&quot;font-size: 46px;&quot;&gt;X&lt;/font&gt;" style="ellipse;whiteSpace=wrap;html=1;aspect=fixed;fontSize=46;fillColor=#66B2FF;" vertex="1" parent="1">
          <mxGeometry x="-6300" y="2830" width="40" height="40" as="geometry" />
        </mxCell>
        <mxCell id="QbFzCAQRqSeKXyy2VyR1-68" style="edgeStyle=none;rounded=0;orthogonalLoop=1;jettySize=auto;html=1;exitX=0.5;exitY=1;exitDx=0;exitDy=0;entryX=1;entryY=0.5;entryDx=0;entryDy=0;elbow=vertical;shape=link;" edge="1" parent="1" source="QbFzCAQRqSeKXyy2VyR1-70" target="QbFzCAQRqSeKXyy2VyR1-26">
          <mxGeometry relative="1" as="geometry">
            <Array as="points">
              <mxPoint x="-3990" y="3600" />
            </Array>
          </mxGeometry>
        </mxCell>
        <mxCell id="QbFzCAQRqSeKXyy2VyR1-69" style="rounded=0;orthogonalLoop=1;jettySize=auto;html=1;exitX=0.5;exitY=0;exitDx=0;exitDy=0;entryX=0.708;entryY=-0.093;entryDx=0;entryDy=0;entryPerimeter=0;shape=link;" edge="1" parent="1" source="QbFzCAQRqSeKXyy2VyR1-70" target="QbFzCAQRqSeKXyy2VyR1-34">
          <mxGeometry relative="1" as="geometry">
            <mxPoint x="-3910" y="2510" as="targetPoint" />
            <Array as="points">
              <mxPoint x="-3990" y="2570" />
              <mxPoint x="-3930" y="2570" />
              <mxPoint x="-3869" y="2570" />
            </Array>
          </mxGeometry>
        </mxCell>
        <mxCell id="QbFzCAQRqSeKXyy2VyR1-70" value="&lt;font style=&quot;font-size: 46px;&quot;&gt;X&lt;/font&gt;" style="ellipse;whiteSpace=wrap;html=1;aspect=fixed;fontSize=46;fillColor=#66B2FF;" vertex="1" parent="1">
          <mxGeometry x="-4010" y="2720" width="40" height="40" as="geometry" />
        </mxCell>
        <mxCell id="QbFzCAQRqSeKXyy2VyR1-71" style="edgeStyle=none;rounded=0;orthogonalLoop=1;jettySize=auto;html=1;exitX=1;exitY=0.5;exitDx=0;exitDy=0;elbow=vertical;shape=link;" edge="1" parent="1" source="QbFzCAQRqSeKXyy2VyR1-72">
          <mxGeometry relative="1" as="geometry">
            <mxPoint x="-3990" y="2894.4285714285716" as="targetPoint" />
          </mxGeometry>
        </mxCell>
        <mxCell id="QbFzCAQRqSeKXyy2VyR1-72" value="&lt;font style=&quot;font-size: 46px;&quot;&gt;X&lt;/font&gt;" style="ellipse;whiteSpace=wrap;html=1;aspect=fixed;fontSize=46;fillColor=#66B2FF;" vertex="1" parent="1">
          <mxGeometry x="-4155" y="2875" width="40" height="40" as="geometry" />
        </mxCell>
        <mxCell id="QbFzCAQRqSeKXyy2VyR1-73" value="" style="edgeStyle=none;shape=link;rounded=0;orthogonalLoop=1;jettySize=auto;html=1;elbow=vertical;" edge="1" parent="1" source="QbFzCAQRqSeKXyy2VyR1-36" target="QbFzCAQRqSeKXyy2VyR1-75">
          <mxGeometry relative="1" as="geometry">
            <mxPoint x="-4040" y="3025" as="targetPoint" />
            <mxPoint x="-3870" y="3025" as="sourcePoint" />
          </mxGeometry>
        </mxCell>
        <mxCell id="QbFzCAQRqSeKXyy2VyR1-74" style="edgeStyle=orthogonalEdgeStyle;rounded=0;orthogonalLoop=1;jettySize=auto;html=1;shape=link;" edge="1" parent="1" source="QbFzCAQRqSeKXyy2VyR1-75">
          <mxGeometry relative="1" as="geometry">
            <mxPoint x="-3990" y="3025" as="targetPoint" />
          </mxGeometry>
        </mxCell>
        <mxCell id="QbFzCAQRqSeKXyy2VyR1-75" value="&lt;font style=&quot;font-size: 46px;&quot;&gt;X&lt;/font&gt;" style="ellipse;whiteSpace=wrap;html=1;aspect=fixed;fontSize=46;fillColor=#66B2FF;" vertex="1" parent="1">
          <mxGeometry x="-3962" y="3005" width="40" height="40" as="geometry" />
        </mxCell>
        <mxCell id="QbFzCAQRqSeKXyy2VyR1-76" style="edgeStyle=none;rounded=0;orthogonalLoop=1;jettySize=auto;html=1;exitX=0.5;exitY=0;exitDx=0;exitDy=0;elbow=vertical;endArrow=none;endFill=0;startArrow=classic;startFill=1;strokeWidth=5;" edge="1" parent="1" source="QbFzCAQRqSeKXyy2VyR1-77">
          <mxGeometry relative="1" as="geometry">
            <mxPoint x="-3349.857142857142" y="3710" as="targetPoint" />
          </mxGeometry>
        </mxCell>
        <mxCell id="QbFzCAQRqSeKXyy2VyR1-77" value="&lt;font style=&quot;font-size: 46px;&quot;&gt;X&lt;/font&gt;" style="ellipse;whiteSpace=wrap;html=1;aspect=fixed;fontSize=46;fillColor=#66B2FF;" vertex="1" parent="1">
          <mxGeometry x="-3370" y="3810" width="40" height="40" as="geometry" />
        </mxCell>
        <mxCell id="QbFzCAQRqSeKXyy2VyR1-78" value="" style="edgeStyle=none;shape=link;rounded=0;orthogonalLoop=1;jettySize=auto;html=1;elbow=vertical;" edge="1" parent="1" source="QbFzCAQRqSeKXyy2VyR1-50" target="QbFzCAQRqSeKXyy2VyR1-79">
          <mxGeometry relative="1" as="geometry">
            <mxPoint x="-3110" y="3490" as="targetPoint" />
            <mxPoint x="-3050" y="3215" as="sourcePoint" />
            <Array as="points">
              <mxPoint x="-3110" y="3215" />
            </Array>
          </mxGeometry>
        </mxCell>
        <mxCell id="QbFzCAQRqSeKXyy2VyR1-79" value="&lt;font style=&quot;font-size: 46px;&quot;&gt;X&lt;/font&gt;" style="ellipse;whiteSpace=wrap;html=1;aspect=fixed;fontSize=46;fillColor=#66B2FF;" vertex="1" parent="1">
          <mxGeometry x="-3130" y="3284.06" width="40" height="40" as="geometry" />
        </mxCell>
        <mxCell id="QbFzCAQRqSeKXyy2VyR1-80" value="" style="edgeStyle=none;shape=link;rounded=0;orthogonalLoop=1;jettySize=auto;html=1;exitX=1;exitY=0.5;exitDx=0;exitDy=0;elbow=vertical;strokeWidth=2;entryX=0;entryY=0.5;entryDx=0;entryDy=0;" edge="1" parent="1" source="QbFzCAQRqSeKXyy2VyR1-46" target="QbFzCAQRqSeKXyy2VyR1-82">
          <mxGeometry relative="1" as="geometry">
            <mxPoint x="-2780" y="3490" as="sourcePoint" />
            <mxPoint x="-2450" y="3180" as="targetPoint" />
            <Array as="points">
              <mxPoint x="-2680" y="3490" />
              <mxPoint x="-2610" y="3180" />
            </Array>
          </mxGeometry>
        </mxCell>
        <mxCell id="QbFzCAQRqSeKXyy2VyR1-81" style="edgeStyle=none;rounded=0;orthogonalLoop=1;jettySize=auto;html=1;elbow=vertical;shape=link;entryX=-0.007;entryY=0.851;entryDx=0;entryDy=0;entryPerimeter=0;strokeWidth=2;" edge="1" parent="1" source="QbFzCAQRqSeKXyy2VyR1-82" target="QbFzCAQRqSeKXyy2VyR1-60">
          <mxGeometry relative="1" as="geometry" />
        </mxCell>
        <mxCell id="QbFzCAQRqSeKXyy2VyR1-82" value="&lt;font style=&quot;font-size: 46px;&quot;&gt;X&lt;/font&gt;" style="ellipse;whiteSpace=wrap;html=1;aspect=fixed;fontSize=46;fillColor=#66B2FF;" vertex="1" parent="1">
          <mxGeometry x="-2445" y="3160" width="40" height="40" as="geometry" />
        </mxCell>
        <mxCell id="QbFzCAQRqSeKXyy2VyR1-83" value="&lt;b&gt;&lt;font style=&quot;font-size: 25px;&quot;&gt;CL&lt;/font&gt;&lt;/b&gt;" style="ellipse;whiteSpace=wrap;html=1;aspect=fixed;fillColor=#FFFF66;" vertex="1" parent="1">
          <mxGeometry x="-6180" y="3235" width="40" height="40" as="geometry" />
        </mxCell>
        <mxCell id="QbFzCAQRqSeKXyy2VyR1-84" value="&lt;font color=&quot;#3399ff&quot; style=&quot;font-size: 30px;&quot;&gt;M&lt;/font&gt;" style="rounded=0;whiteSpace=wrap;html=1;strokeWidth=7;strokeColor=#3399FF;" vertex="1" parent="1">
          <mxGeometry x="-6000" y="3204" width="42.38" height="36" as="geometry" />
        </mxCell>
        <mxCell id="QbFzCAQRqSeKXyy2VyR1-85" value="&lt;font color=&quot;#3399ff&quot; style=&quot;font-size: 30px;&quot;&gt;M&lt;/font&gt;" style="rounded=0;whiteSpace=wrap;html=1;strokeWidth=7;strokeColor=#3399FF;" vertex="1" parent="1">
          <mxGeometry x="-6560" y="3318" width="42.38" height="46" as="geometry" />
        </mxCell>
        <mxCell id="QbFzCAQRqSeKXyy2VyR1-86" value="&lt;font color=&quot;#3399ff&quot; style=&quot;font-size: 30px;&quot;&gt;M&lt;/font&gt;" style="rounded=0;whiteSpace=wrap;html=1;strokeWidth=7;strokeColor=#3399FF;" vertex="1" parent="1">
          <mxGeometry x="-5730" y="3127" width="42.38" height="46" as="geometry" />
        </mxCell>
        <mxCell id="QbFzCAQRqSeKXyy2VyR1-87" value="&lt;font color=&quot;#3399ff&quot; style=&quot;font-size: 30px;&quot;&gt;M&lt;/font&gt;" style="rounded=0;whiteSpace=wrap;html=1;strokeWidth=7;strokeColor=#3399FF;" vertex="1" parent="1">
          <mxGeometry x="-5310" y="3144" width="40" height="36" as="geometry" />
        </mxCell>
        <mxCell id="QbFzCAQRqSeKXyy2VyR1-88" value="&lt;font color=&quot;#3399ff&quot; style=&quot;font-size: 30px;&quot;&gt;M&lt;/font&gt;" style="rounded=0;whiteSpace=wrap;html=1;strokeWidth=7;strokeColor=#3399FF;" vertex="1" parent="1">
          <mxGeometry x="-4810" y="3629" width="42.38" height="46" as="geometry" />
        </mxCell>
        <mxCell id="QbFzCAQRqSeKXyy2VyR1-89" value="&lt;font color=&quot;#3399ff&quot; style=&quot;font-size: 30px;&quot;&gt;M&lt;/font&gt;" style="rounded=0;whiteSpace=wrap;html=1;strokeWidth=7;strokeColor=#3399FF;" vertex="1" parent="1">
          <mxGeometry x="-4060" y="2770" width="42.38" height="46" as="geometry" />
        </mxCell>
        <mxCell id="QbFzCAQRqSeKXyy2VyR1-90" value="&lt;font color=&quot;#3399ff&quot; style=&quot;font-size: 30px;&quot;&gt;M&lt;/font&gt;" style="rounded=0;whiteSpace=wrap;html=1;strokeWidth=7;strokeColor=#3399FF;" vertex="1" parent="1">
          <mxGeometry x="-4060" y="2829" width="42.38" height="46" as="geometry" />
        </mxCell>
        <mxCell id="QbFzCAQRqSeKXyy2VyR1-91" value="&lt;font color=&quot;#3399ff&quot; style=&quot;font-size: 30px;&quot;&gt;M&lt;/font&gt;" style="rounded=0;whiteSpace=wrap;html=1;strokeWidth=7;strokeColor=#3399FF;" vertex="1" parent="1">
          <mxGeometry x="-3931.19" y="2944" width="42.38" height="46" as="geometry" />
        </mxCell>
        <mxCell id="QbFzCAQRqSeKXyy2VyR1-92" value="&lt;font color=&quot;#3399ff&quot; style=&quot;font-size: 30px;&quot;&gt;M&lt;/font&gt;" style="rounded=0;whiteSpace=wrap;html=1;strokeWidth=7;strokeColor=#3399FF;" vertex="1" parent="1">
          <mxGeometry x="-3407.19" y="3632" width="42.38" height="46" as="geometry" />
        </mxCell>
        <mxCell id="QbFzCAQRqSeKXyy2VyR1-93" value="&lt;font color=&quot;#3399ff&quot; style=&quot;font-size: 30px;&quot;&gt;M&lt;/font&gt;" style="rounded=0;whiteSpace=wrap;html=1;strokeWidth=7;strokeColor=#3399FF;" vertex="1" parent="1">
          <mxGeometry x="-2740" y="3520" width="42.38" height="40" as="geometry" />
        </mxCell>
        <mxCell id="QbFzCAQRqSeKXyy2VyR1-94" value="&lt;font color=&quot;#3399ff&quot; style=&quot;font-size: 30px;&quot;&gt;M&lt;/font&gt;" style="rounded=0;whiteSpace=wrap;html=1;strokeWidth=7;strokeColor=#3399FF;" vertex="1" parent="1">
          <mxGeometry x="-3172.38" y="3340" width="42.38" height="46" as="geometry" />
        </mxCell>
        <mxCell id="QbFzCAQRqSeKXyy2VyR1-95" value="&lt;font color=&quot;#3399ff&quot; style=&quot;font-size: 30px;&quot;&gt;M&lt;/font&gt;" style="rounded=0;whiteSpace=wrap;html=1;strokeWidth=7;strokeColor=#3399FF;" vertex="1" parent="1">
          <mxGeometry x="-2607.38" y="3076" width="42.38" height="46" as="geometry" />
        </mxCell>
        <mxCell id="QbFzCAQRqSeKXyy2VyR1-96" value="&lt;font color=&quot;#3399ff&quot; style=&quot;font-size: 30px;&quot;&gt;M&lt;/font&gt;" style="rounded=0;whiteSpace=wrap;html=1;strokeWidth=7;strokeColor=#3399FF;" vertex="1" parent="1">
          <mxGeometry x="-2331" y="3340" width="42.38" height="46" as="geometry" />
        </mxCell>
        <mxCell id="QbFzCAQRqSeKXyy2VyR1-97" value="&lt;b&gt;&lt;font style=&quot;font-size: 25px;&quot;&gt;CL&lt;/font&gt;&lt;/b&gt;" style="ellipse;whiteSpace=wrap;html=1;aspect=fixed;fillColor=#FFFF66;" vertex="1" parent="1">
          <mxGeometry x="-4818.81" y="3530" width="40" height="40" as="geometry" />
        </mxCell>
        <mxCell id="QbFzCAQRqSeKXyy2VyR1-98" value="&lt;b&gt;&lt;font style=&quot;font-size: 25px;&quot;&gt;CL&lt;/font&gt;&lt;/b&gt;" style="ellipse;whiteSpace=wrap;html=1;aspect=fixed;fillColor=#FFFF66;" vertex="1" parent="1">
          <mxGeometry x="-3610" y="3650" width="40" height="40" as="geometry" />
        </mxCell>
        <mxCell id="QbFzCAQRqSeKXyy2VyR1-99" value="&lt;b&gt;&lt;font style=&quot;font-size: 25px;&quot;&gt;CL&lt;/font&gt;&lt;/b&gt;" style="ellipse;whiteSpace=wrap;html=1;aspect=fixed;fillColor=#FFFF66;" vertex="1" parent="1">
          <mxGeometry x="-2810" y="3400" width="40" height="40" as="geometry" />
        </mxCell>
        <mxCell id="QbFzCAQRqSeKXyy2VyR1-100" value="&lt;b&gt;&lt;font style=&quot;font-size: 25px;&quot;&gt;CL&lt;/font&gt;&lt;/b&gt;" style="ellipse;whiteSpace=wrap;html=1;aspect=fixed;fillColor=#FFFF66;" vertex="1" parent="1">
          <mxGeometry x="-2140" y="3070" width="40" height="40" as="geometry" />
        </mxCell>
        <mxCell id="QbFzCAQRqSeKXyy2VyR1-101" value="&lt;font style=&quot;font-size: 50px;&quot;&gt;I&lt;/font&gt;" style="text;html=1;align=center;verticalAlign=middle;whiteSpace=wrap;rounded=0;fontColor=#3399FF;" vertex="1" parent="1">
          <mxGeometry x="-6008.81" y="3240" width="60" height="30" as="geometry" />
        </mxCell>
        <mxCell id="QbFzCAQRqSeKXyy2VyR1-102" value="&lt;font style=&quot;font-size: 50px;&quot;&gt;I&lt;/font&gt;" style="text;html=1;align=center;verticalAlign=middle;whiteSpace=wrap;rounded=0;fontColor=#3399FF;rotation=-90;" vertex="1" parent="1">
          <mxGeometry x="-5360" y="3150" width="60" height="30" as="geometry" />
        </mxCell>
        <mxCell id="QbFzCAQRqSeKXyy2VyR1-103" value="&lt;font style=&quot;font-size: 40px;&quot;&gt;I&lt;/font&gt;" style="text;html=1;align=center;verticalAlign=middle;whiteSpace=wrap;rounded=0;fontColor=#3399FF;fontSize=40;" vertex="1" parent="1">
          <mxGeometry x="-4818.8099999999995" y="3599" width="60" height="30" as="geometry" />
        </mxCell>
        <mxCell id="QbFzCAQRqSeKXyy2VyR1-104" value="&lt;font style=&quot;font-size: 50px;&quot;&gt;I&lt;/font&gt;" style="text;html=1;align=center;verticalAlign=middle;whiteSpace=wrap;rounded=0;fontColor=#3399FF;" vertex="1" parent="1">
          <mxGeometry x="-3420" y="3680" width="60" height="30" as="geometry" />
        </mxCell>
        <mxCell id="QbFzCAQRqSeKXyy2VyR1-105" value="&lt;font style=&quot;font-size: 50px;&quot;&gt;I&lt;/font&gt;" style="text;html=1;align=center;verticalAlign=middle;whiteSpace=wrap;rounded=0;fontColor=#3399FF;" vertex="1" parent="1">
          <mxGeometry x="-3940" y="2980" width="60" height="50" as="geometry" />
        </mxCell>
        <mxCell id="QbFzCAQRqSeKXyy2VyR1-106" value="&lt;font style=&quot;font-size: 30px;&quot;&gt;I&lt;/font&gt;" style="text;html=1;align=center;verticalAlign=middle;whiteSpace=wrap;rounded=0;fontColor=#3399FF;strokeWidth=4;" vertex="1" parent="1">
          <mxGeometry x="-4068.81" y="2860" width="60" height="50" as="geometry" />
        </mxCell>
        <mxCell id="QbFzCAQRqSeKXyy2VyR1-107" value="&lt;font style=&quot;font-size: 40px;&quot;&gt;I&lt;/font&gt;" style="text;html=1;align=center;verticalAlign=middle;whiteSpace=wrap;rounded=0;fontColor=#3399FF;rotation=-90;" vertex="1" parent="1">
          <mxGeometry x="-4030" y="2770" width="60" height="50" as="geometry" />
        </mxCell>
        <mxCell id="QbFzCAQRqSeKXyy2VyR1-108" value="&lt;font size=&quot;1&quot; style=&quot;&quot;&gt;&lt;b style=&quot;font-size: 25px;&quot;&gt;Captació i Bombament Aigua Crua&lt;/b&gt;&lt;/font&gt;" style="text;html=1;align=center;verticalAlign=middle;whiteSpace=wrap;rounded=0;" vertex="1" parent="1">
          <mxGeometry x="-5280" y="3275" width="170" height="30" as="geometry" />
        </mxCell>
        <mxCell id="QbFzCAQRqSeKXyy2VyR1-109" value="&lt;font style=&quot;font-size: 50px;&quot;&gt;I&lt;/font&gt;" style="text;html=1;align=center;verticalAlign=middle;whiteSpace=wrap;rounded=0;fontColor=#3399FF;" vertex="1" parent="1">
          <mxGeometry x="-5738.81" y="3140" width="60" height="110" as="geometry" />
        </mxCell>
        <mxCell id="QbFzCAQRqSeKXyy2VyR1-110" value="&lt;font style=&quot;font-size: 25px;&quot;&gt;Bombament Cabrianes&lt;/font&gt;" style="text;html=1;align=center;verticalAlign=middle;whiteSpace=wrap;rounded=0;fontStyle=1" vertex="1" parent="1">
          <mxGeometry x="-4330" y="3500" width="170" height="30" as="geometry" />
        </mxCell>
        <mxCell id="QbFzCAQRqSeKXyy2VyR1-111" value="&lt;font size=&quot;1&quot; style=&quot;&quot;&gt;&lt;b style=&quot;font-size: 25px;&quot;&gt;Dipòsits Vista Pirineu&lt;/b&gt;&lt;/font&gt;" style="text;html=1;align=center;verticalAlign=middle;whiteSpace=wrap;rounded=0;" vertex="1" parent="1">
          <mxGeometry x="-3100" y="3070" width="180" height="60" as="geometry" />
        </mxCell>
        <mxCell id="QbFzCAQRqSeKXyy2VyR1-112" value="" style="endArrow=none;html=1;rounded=0;dashed=1;strokeWidth=4;endFill=0;" edge="1" parent="1" target="QbFzCAQRqSeKXyy2VyR1-53">
          <mxGeometry width="50" height="50" relative="1" as="geometry">
            <mxPoint x="-2025" y="2760" as="sourcePoint" />
            <mxPoint x="-2515" y="2770" as="targetPoint" />
            <Array as="points">
              <mxPoint x="-2515" y="2760" />
            </Array>
          </mxGeometry>
        </mxCell>
        <mxCell id="QbFzCAQRqSeKXyy2VyR1-113" value="" style="endArrow=classic;html=1;rounded=0;" edge="1" parent="1">
          <mxGeometry width="50" height="50" relative="1" as="geometry">
            <mxPoint x="-2255" y="3960" as="sourcePoint" />
            <mxPoint x="-2485" y="3960" as="targetPoint" />
          </mxGeometry>
        </mxCell>
        <mxCell id="QbFzCAQRqSeKXyy2VyR1-114" value="" style="endArrow=classic;html=1;rounded=0;" edge="1" parent="1">
          <mxGeometry width="50" height="50" relative="1" as="geometry">
            <mxPoint x="-2254" y="3840" as="sourcePoint" />
            <mxPoint x="-2484" y="3840" as="targetPoint" />
          </mxGeometry>
        </mxCell>
        <mxCell id="QbFzCAQRqSeKXyy2VyR1-115" value="" style="endArrow=classic;html=1;rounded=0;" edge="1" parent="1">
          <mxGeometry width="50" height="50" relative="1" as="geometry">
            <mxPoint x="-2340" y="3840" as="sourcePoint" />
            <mxPoint x="-2510" y="3700" as="targetPoint" />
            <Array as="points">
              <mxPoint x="-2340" y="3700" />
            </Array>
          </mxGeometry>
        </mxCell>
        <mxCell id="QbFzCAQRqSeKXyy2VyR1-116" value="&lt;font style=&quot;font-size: 46px;&quot;&gt;X&lt;/font&gt;" style="ellipse;whiteSpace=wrap;html=1;aspect=fixed;fontSize=46;fillColor=#66B2FF;" vertex="1" parent="1">
          <mxGeometry x="-2415" y="3678" width="40" height="40" as="geometry" />
        </mxCell>
        <mxCell id="QbFzCAQRqSeKXyy2VyR1-117" value="&lt;font size=&quot;1&quot; color=&quot;#00cc00&quot;&gt;&lt;b style=&quot;font-size: 25px;&quot;&gt;Xarxa Vista Pirineu&lt;/b&gt;&lt;/font&gt;" style="text;html=1;align=center;verticalAlign=middle;whiteSpace=wrap;rounded=0;" vertex="1" parent="1">
          <mxGeometry x="-2642.62" y="3685" width="110" height="30" as="geometry" />
        </mxCell>
        <mxCell id="QbFzCAQRqSeKXyy2VyR1-118" value="&lt;font size=&quot;1&quot; color=&quot;#00cc00&quot; style=&quot;&quot;&gt;&lt;b style=&quot;font-size: 25px;&quot;&gt;Xarxa Normal La Guàrdia&lt;/b&gt;&lt;/font&gt;" style="text;html=1;align=center;verticalAlign=middle;whiteSpace=wrap;rounded=0;" vertex="1" parent="1">
          <mxGeometry x="-2732.5" y="3830" width="234.76" height="30" as="geometry" />
        </mxCell>
        <mxCell id="QbFzCAQRqSeKXyy2VyR1-119" value="&lt;font size=&quot;1&quot; color=&quot;#00cc00&quot; style=&quot;&quot;&gt;&lt;b style=&quot;font-size: 25px;&quot;&gt;Xarxa les Quingles&lt;/b&gt;&lt;/font&gt;" style="text;html=1;align=center;verticalAlign=middle;whiteSpace=wrap;rounded=0;" vertex="1" parent="1">
          <mxGeometry x="-2677.5" y="3940" width="179.76" height="30" as="geometry" />
        </mxCell>
        <mxCell id="QbFzCAQRqSeKXyy2VyR1-120" value="" style="endArrow=none;html=1;rounded=0;dashed=1;strokeWidth=7;strokeColor=#000000;fillColor=#f5f5f5;shadow=0;" edge="1" parent="1">
          <mxGeometry width="50" height="50" relative="1" as="geometry">
            <mxPoint x="-3410" y="2880" as="sourcePoint" />
            <mxPoint x="-3410" y="2880" as="targetPoint" />
            <Array as="points">
              <mxPoint x="-3520" y="3240" />
              <mxPoint x="-3800" y="3240" />
              <mxPoint x="-3800" y="3570" />
              <mxPoint x="-3450" y="3570" />
              <mxPoint x="-3360" y="3280" />
              <mxPoint x="-2750" y="3280" />
              <mxPoint x="-2750" y="2880" />
            </Array>
          </mxGeometry>
        </mxCell>
        <mxCell id="QbFzCAQRqSeKXyy2VyR1-121" value="&lt;font size=&quot;1&quot; style=&quot;&quot;&gt;&lt;b style=&quot;font-size: 30px;&quot;&gt;Sorea (Artés)&lt;/b&gt;&lt;/font&gt;" style="text;html=1;align=center;verticalAlign=middle;whiteSpace=wrap;rounded=0;" vertex="1" parent="1">
          <mxGeometry x="-2990" y="2830" width="236.88" height="30" as="geometry" />
        </mxCell>
        <mxCell id="QbFzCAQRqSeKXyy2VyR1-122" value="" style="endArrow=none;dashed=1;html=1;strokeWidth=7;rounded=0;" edge="1" parent="1">
          <mxGeometry width="50" height="50" relative="1" as="geometry">
            <mxPoint x="-4460" y="2520" as="sourcePoint" />
            <mxPoint x="-4450" y="2520" as="targetPoint" />
            <Array as="points">
              <mxPoint x="-4460" y="3000" />
              <mxPoint x="-4200" y="3000" />
              <mxPoint x="-4200" y="2700" />
              <mxPoint x="-3850" y="2700" />
              <mxPoint x="-3850" y="3120" />
              <mxPoint x="-3600" y="3120" />
              <mxPoint x="-3600" y="2520" />
            </Array>
          </mxGeometry>
        </mxCell>
        <mxCell id="QbFzCAQRqSeKXyy2VyR1-123" value="&lt;b style=&quot;forced-color-adjust: none; color: rgb(0, 0, 0); font-family: Helvetica; font-style: normal; font-variant-ligatures: normal; font-variant-caps: normal; letter-spacing: normal; orphans: 2; text-align: center; text-indent: 0px; text-transform: none; widows: 2; word-spacing: 0px; -webkit-text-stroke-width: 0px; white-space: normal; background-color: rgb(251, 251, 251); text-decoration-thickness: initial; text-decoration-style: initial; text-decoration-color: initial;&quot;&gt;&lt;font style=&quot;font-size: 30px;&quot;&gt;Sorea (Avinyó)&lt;/font&gt;&lt;/b&gt;" style="text;whiteSpace=wrap;html=1;" vertex="1" parent="1">
          <mxGeometry x="-3860" y="2470" width="270" height="50" as="geometry" />
        </mxCell>
        <mxCell id="QbFzCAQRqSeKXyy2VyR1-124" value="" style="endArrow=none;dashed=1;html=1;rounded=0;strokeWidth=7;" edge="1" parent="1">
          <mxGeometry width="50" height="50" relative="1" as="geometry">
            <mxPoint x="-6480" y="2560" as="sourcePoint" />
            <mxPoint x="-6480" y="2800" as="targetPoint" />
            <Array as="points">
              <mxPoint x="-6080" y="2560" />
              <mxPoint x="-6080" y="2800" />
            </Array>
          </mxGeometry>
        </mxCell>
        <mxCell id="QbFzCAQRqSeKXyy2VyR1-125" value="&lt;b style=&quot;forced-color-adjust: none; color: rgb(0, 0, 0); font-family: Helvetica; font-style: normal; font-variant-ligatures: normal; font-variant-caps: normal; letter-spacing: normal; orphans: 2; text-align: center; text-indent: 0px; text-transform: none; widows: 2; word-spacing: 0px; -webkit-text-stroke-width: 0px; white-space: normal; background-color: rgb(251, 251, 251); text-decoration-thickness: initial; text-decoration-style: initial; text-decoration-color: initial;&quot;&gt;&lt;font style=&quot;font-size: 30px;&quot;&gt;Sorea (Sallent)&lt;/font&gt;&lt;/b&gt;" style="text;whiteSpace=wrap;html=1;" vertex="1" parent="1">
          <mxGeometry x="-6340" y="2500" width="260" height="50" as="geometry" />
        </mxCell>
        <mxCell id="QbFzCAQRqSeKXyy2VyR1-126" value="" style="endArrow=none;html=1;rounded=0;exitX=1;exitY=0.5;exitDx=0;exitDy=0;strokeWidth=6;strokeColor=#3399FF;" edge="1" parent="1" source="QbFzCAQRqSeKXyy2VyR1-85">
          <mxGeometry width="50" height="50" relative="1" as="geometry">
            <mxPoint x="-5880" y="2850" as="sourcePoint" />
            <mxPoint x="-6480" y="3340" as="targetPoint" />
          </mxGeometry>
        </mxCell>
        <mxCell id="QbFzCAQRqSeKXyy2VyR1-127" value="" style="endArrow=none;html=1;rounded=0;exitX=1;exitY=0.5;exitDx=0;exitDy=0;strokeWidth=4;strokeColor=#3399FF;" edge="1" parent="1" source="QbFzCAQRqSeKXyy2VyR1-94">
          <mxGeometry width="50" height="50" relative="1" as="geometry">
            <mxPoint x="-3400" y="3590" as="sourcePoint" />
            <mxPoint x="-3110" y="3363" as="targetPoint" />
          </mxGeometry>
        </mxCell>
        <mxCell id="QbFzCAQRqSeKXyy2VyR1-128" value="" style="endArrow=none;html=1;rounded=0;exitX=0.5;exitY=0;exitDx=0;exitDy=0;strokeWidth=4;strokeColor=#3399FF;" edge="1" parent="1" source="QbFzCAQRqSeKXyy2VyR1-93">
          <mxGeometry width="50" height="50" relative="1" as="geometry">
            <mxPoint x="-2850" y="3490" as="sourcePoint" />
            <mxPoint x="-2719" y="3490" as="targetPoint" />
          </mxGeometry>
        </mxCell>
        <mxCell id="QbFzCAQRqSeKXyy2VyR1-129" value="" style="endArrow=none;html=1;rounded=0;exitX=0.5;exitY=0;exitDx=0;exitDy=0;strokeWidth=5;strokeColor=#3399FF;" edge="1" parent="1" source="QbFzCAQRqSeKXyy2VyR1-95">
          <mxGeometry width="50" height="50" relative="1" as="geometry">
            <mxPoint x="-2785" y="3254" as="sourcePoint" />
            <mxPoint x="-2586" y="3044" as="targetPoint" />
          </mxGeometry>
        </mxCell>
        <mxCell id="QbFzCAQRqSeKXyy2VyR1-130" value="" style="endArrow=none;html=1;rounded=0;exitX=1;exitY=0.5;exitDx=0;exitDy=0;strokeWidth=5;strokeColor=#3399FF;" edge="1" parent="1" source="QbFzCAQRqSeKXyy2VyR1-96">
          <mxGeometry width="50" height="50" relative="1" as="geometry">
            <mxPoint x="-2691" y="3190" as="sourcePoint" />
            <mxPoint x="-2261" y="3363" as="targetPoint" />
          </mxGeometry>
        </mxCell>
        <mxCell id="QbFzCAQRqSeKXyy2VyR1-131" value="" style="endArrow=none;html=1;rounded=0;startArrow=block;startFill=1;endFill=0;dashed=1;strokeWidth=6;jumpStyle=arc;" edge="1" parent="1">
          <mxGeometry width="50" height="50" relative="1" as="geometry">
            <mxPoint x="-6480" y="3400" as="sourcePoint" />
            <mxPoint x="-6160" y="3280" as="targetPoint" />
            <Array as="points">
              <mxPoint x="-6160" y="3400" />
            </Array>
          </mxGeometry>
        </mxCell>
        <mxCell id="QbFzCAQRqSeKXyy2VyR1-132" value="&lt;font size=&quot;1&quot; style=&quot;&quot;&gt;&lt;b style=&quot;font-size: 25px;&quot;&gt;Dipòsit i Bombament la Paloma&lt;/b&gt;&lt;/font&gt;" style="text;html=1;align=center;verticalAlign=middle;whiteSpace=wrap;rounded=0;" vertex="1" parent="1">
          <mxGeometry x="-3407.19" y="3545" width="180" height="60" as="geometry" />
        </mxCell>
        <mxCell id="QbFzCAQRqSeKXyy2VyR1-133" value="&lt;font color=&quot;#00cc00&quot;&gt;&lt;span style=&quot;font-size: 25px;&quot;&gt;&lt;b&gt;A l&#39;Oller&lt;/b&gt;&lt;/span&gt;&lt;/font&gt;" style="text;html=1;align=center;verticalAlign=middle;whiteSpace=wrap;rounded=0;" vertex="1" parent="1">
          <mxGeometry x="-2370" y="4077" width="230" height="30" as="geometry" />
        </mxCell>
        <mxCell id="QbFzCAQRqSeKXyy2VyR1-134" value="" style="endArrow=classic;html=1;rounded=0;strokeWidth=2;" edge="1" parent="1">
          <mxGeometry width="50" height="50" relative="1" as="geometry">
            <mxPoint x="-2515" y="3040" as="sourcePoint" />
            <mxPoint x="-2625" y="3040" as="targetPoint" />
          </mxGeometry>
        </mxCell>
        <mxCell id="QbFzCAQRqSeKXyy2VyR1-135" value="&lt;font size=&quot;1&quot; color=&quot;#00cc00&quot; style=&quot;&quot;&gt;&lt;b style=&quot;font-size: 22px;&quot;&gt;Xarxa la Guàrdia&lt;/b&gt;&lt;/font&gt;" style="text;html=1;align=center;verticalAlign=middle;whiteSpace=wrap;rounded=0;" vertex="1" parent="1">
          <mxGeometry x="-2732.5" y="3000" width="234.76" height="30" as="geometry" />
        </mxCell>
        <mxCell id="QbFzCAQRqSeKXyy2VyR1-136" value="" style="endArrow=none;html=1;rounded=0;shape=link;strokeWidth=2;" edge="1" parent="1">
          <mxGeometry width="50" height="50" relative="1" as="geometry">
            <mxPoint x="-2210" y="3156" as="sourcePoint" />
            <mxPoint x="-1840" y="3156" as="targetPoint" />
          </mxGeometry>
        </mxCell>
        <mxCell id="QbFzCAQRqSeKXyy2VyR1-137" value="&lt;font color=&quot;#ff00ff&quot; style=&quot;font-size: 25px;&quot;&gt;&lt;b style=&quot;font-size: 25px;&quot;&gt;Esporàdic&lt;/b&gt;&lt;/font&gt;" style="text;html=1;align=center;verticalAlign=middle;whiteSpace=wrap;rounded=0;strokeWidth=8;fontSize=25;" vertex="1" parent="1">
          <mxGeometry x="-2125" y="2770" width="60" height="30" as="geometry" />
        </mxCell>
        <mxCell id="QbFzCAQRqSeKXyy2VyR1-138" value="" style="endArrow=classic;html=1;rounded=0;dashed=1;strokeWidth=4;" edge="1" parent="1">
          <mxGeometry width="50" height="50" relative="1" as="geometry">
            <mxPoint x="-2030" y="2760" as="sourcePoint" />
            <mxPoint x="-2300" y="2760" as="targetPoint" />
          </mxGeometry>
        </mxCell>
        <mxCell id="QbFzCAQRqSeKXyy2VyR1-139" value="&lt;font color=&quot;#ff00ff&quot; style=&quot;font-size: 25px;&quot;&gt;&lt;b style=&quot;font-size: 25px;&quot;&gt;Esporàdic&lt;/b&gt;&lt;/font&gt;" style="text;html=1;align=center;verticalAlign=middle;whiteSpace=wrap;rounded=0;strokeWidth=8;fontSize=25;" vertex="1" parent="1">
          <mxGeometry x="-2385" y="3550" width="60" height="30" as="geometry" />
        </mxCell>
        <mxCell id="QbFzCAQRqSeKXyy2VyR1-140" value="&lt;font style=&quot;font-size: 20px;&quot;&gt;CS 338.00&lt;/font&gt;" style="text;html=1;align=center;verticalAlign=middle;whiteSpace=wrap;rounded=0;" vertex="1" parent="1">
          <mxGeometry x="-6400" y="2770" width="120" height="30" as="geometry" />
        </mxCell>
        <mxCell id="QbFzCAQRqSeKXyy2VyR1-141" value="&lt;span style=&quot;color: rgb(0, 0, 0); font-family: Helvetica; font-size: 20px; font-style: normal; font-variant-ligatures: normal; font-variant-caps: normal; font-weight: 400; letter-spacing: normal; orphans: 2; text-align: center; text-indent: 0px; text-transform: none; widows: 2; word-spacing: 0px; -webkit-text-stroke-width: 0px; white-space: normal; background-color: rgb(251, 251, 251); text-decoration-thickness: initial; text-decoration-style: initial; text-decoration-color: initial; display: inline !important; float: none;&quot;&gt;CS 341.50&lt;/span&gt;" style="text;whiteSpace=wrap;html=1;" vertex="1" parent="1">
          <mxGeometry x="-6390" y="3314" width="130" height="50" as="geometry" />
        </mxCell>
        <mxCell id="QbFzCAQRqSeKXyy2VyR1-142" value="&lt;span style=&quot;color: rgb(0, 0, 0); font-family: Helvetica; font-size: 20px; font-style: normal; font-variant-ligatures: normal; font-variant-caps: normal; font-weight: 400; letter-spacing: normal; orphans: 2; text-align: center; text-indent: 0px; text-transform: none; widows: 2; word-spacing: 0px; -webkit-text-stroke-width: 0px; white-space: normal; background-color: rgb(251, 251, 251); text-decoration-thickness: initial; text-decoration-style: initial; text-decoration-color: initial; display: inline !important; float: none;&quot;&gt;CS 349.65&lt;/span&gt;" style="text;whiteSpace=wrap;html=1;" vertex="1" parent="1">
          <mxGeometry x="-5560" y="3180" width="130" height="50" as="geometry" />
        </mxCell>
        <mxCell id="QbFzCAQRqSeKXyy2VyR1-143" value="&lt;span style=&quot;color: rgb(0, 0, 0); font-family: Helvetica; font-size: 20px; font-style: normal; font-variant-ligatures: normal; font-variant-caps: normal; font-weight: 400; letter-spacing: normal; orphans: 2; text-align: center; text-indent: 0px; text-transform: none; widows: 2; word-spacing: 0px; -webkit-text-stroke-width: 0px; white-space: normal; background-color: rgb(251, 251, 251); text-decoration-thickness: initial; text-decoration-style: initial; text-decoration-color: initial; display: inline !important; float: none;&quot;&gt;CB 295.65&lt;/span&gt;" style="text;whiteSpace=wrap;html=1;" vertex="1" parent="1">
          <mxGeometry x="-5260" y="3440" width="130" height="50" as="geometry" />
        </mxCell>
        <mxCell id="QbFzCAQRqSeKXyy2VyR1-144" value="&lt;span style=&quot;color: rgb(0, 0, 0); font-family: Helvetica; font-size: 20px; font-style: normal; font-variant-ligatures: normal; font-variant-caps: normal; font-weight: 400; letter-spacing: normal; orphans: 2; text-align: center; text-indent: 0px; text-transform: none; widows: 2; word-spacing: 0px; -webkit-text-stroke-width: 0px; white-space: normal; background-color: rgb(251, 251, 251); text-decoration-thickness: initial; text-decoration-style: initial; text-decoration-color: initial; display: inline !important; float: none;&quot;&gt;CS 314.49&lt;/span&gt;" style="text;whiteSpace=wrap;html=1;" vertex="1" parent="1">
          <mxGeometry x="-4962" y="3620" width="130" height="50" as="geometry" />
        </mxCell>
        <mxCell id="QbFzCAQRqSeKXyy2VyR1-145" value="&lt;span style=&quot;color: rgb(0, 0, 0); font-family: Helvetica; font-size: 20px; font-style: normal; font-variant-ligatures: normal; font-variant-caps: normal; font-weight: 400; letter-spacing: normal; orphans: 2; text-align: center; text-indent: 0px; text-transform: none; widows: 2; word-spacing: 0px; -webkit-text-stroke-width: 0px; white-space: normal; background-color: rgb(251, 251, 251); text-decoration-thickness: initial; text-decoration-style: initial; text-decoration-color: initial; display: inline !important; float: none;&quot;&gt;CB 266.34&lt;/span&gt;" style="text;whiteSpace=wrap;html=1;" vertex="1" parent="1">
          <mxGeometry x="-4300" y="3790" width="130" height="50" as="geometry" />
        </mxCell>
        <mxCell id="QbFzCAQRqSeKXyy2VyR1-146" value="&lt;span style=&quot;color: rgb(0, 0, 0); font-family: Helvetica; font-size: 20px; font-style: normal; font-variant-ligatures: normal; font-variant-caps: normal; font-weight: 400; letter-spacing: normal; orphans: 2; text-align: center; text-indent: 0px; text-transform: none; widows: 2; word-spacing: 0px; -webkit-text-stroke-width: 0px; white-space: normal; background-color: rgb(251, 251, 251); text-decoration-thickness: initial; text-decoration-style: initial; text-decoration-color: initial; display: inline !important; float: none;&quot;&gt;CS 356.50&lt;/span&gt;" style="text;whiteSpace=wrap;html=1;" vertex="1" parent="1">
          <mxGeometry x="-4390" y="2940" width="130" height="50" as="geometry" />
        </mxCell>
        <mxCell id="QbFzCAQRqSeKXyy2VyR1-147" value="&lt;span style=&quot;color: rgb(0, 0, 0); font-family: Helvetica; font-size: 20px; font-style: normal; font-variant-ligatures: normal; font-variant-caps: normal; font-weight: 400; letter-spacing: normal; orphans: 2; text-align: center; text-indent: 0px; text-transform: none; widows: 2; word-spacing: 0px; -webkit-text-stroke-width: 0px; white-space: normal; background-color: rgb(251, 251, 251); text-decoration-thickness: initial; text-decoration-style: initial; text-decoration-color: initial; display: inline !important; float: none;&quot;&gt;CS 395.44&lt;/span&gt;" style="text;whiteSpace=wrap;html=1;" vertex="1" parent="1">
          <mxGeometry x="-3955" y="2670" width="130" height="50" as="geometry" />
        </mxCell>
        <mxCell id="QbFzCAQRqSeKXyy2VyR1-148" value="&lt;span style=&quot;color: rgb(0, 0, 0); font-family: Helvetica; font-size: 20px; font-style: normal; font-variant-ligatures: normal; font-variant-caps: normal; font-weight: 400; letter-spacing: normal; orphans: 2; text-align: center; text-indent: 0px; text-transform: none; widows: 2; word-spacing: 0px; -webkit-text-stroke-width: 0px; white-space: normal; background-color: rgb(251, 251, 251); text-decoration-thickness: initial; text-decoration-style: initial; text-decoration-color: initial; display: inline !important; float: none;&quot;&gt;CS 339.00&lt;/span&gt;" style="text;whiteSpace=wrap;html=1;" vertex="1" parent="1">
          <mxGeometry x="-3760" y="3060" width="130" height="50" as="geometry" />
        </mxCell>
        <mxCell id="QbFzCAQRqSeKXyy2VyR1-149" value="&lt;span style=&quot;color: rgb(0, 0, 0); font-family: Helvetica; font-size: 20px; font-style: normal; font-variant-ligatures: normal; font-variant-caps: normal; font-weight: 400; letter-spacing: normal; orphans: 2; text-align: center; text-indent: 0px; text-transform: none; widows: 2; word-spacing: 0px; -webkit-text-stroke-width: 0px; white-space: normal; background-color: rgb(251, 251, 251); text-decoration-thickness: initial; text-decoration-style: initial; text-decoration-color: initial; display: inline !important; float: none;&quot;&gt;CS 349.00&lt;/span&gt;" style="text;whiteSpace=wrap;html=1;" vertex="1" parent="1">
          <mxGeometry x="-3640" y="3435" width="130" height="50" as="geometry" />
        </mxCell>
        <mxCell id="QbFzCAQRqSeKXyy2VyR1-150" value="&lt;span style=&quot;color: rgb(0, 0, 0); font-family: Helvetica; font-size: 20px; font-style: normal; font-variant-ligatures: normal; font-variant-caps: normal; font-weight: 400; letter-spacing: normal; orphans: 2; text-align: center; text-indent: 0px; text-transform: none; widows: 2; word-spacing: 0px; -webkit-text-stroke-width: 0px; white-space: normal; background-color: rgb(251, 251, 251); text-decoration-thickness: initial; text-decoration-style: initial; text-decoration-color: initial; display: inline !important; float: none;&quot;&gt;CS 376.07&lt;/span&gt;" style="text;whiteSpace=wrap;html=1;" vertex="1" parent="1">
          <mxGeometry x="-3550" y="3760" width="130" height="50" as="geometry" />
        </mxCell>
        <mxCell id="QbFzCAQRqSeKXyy2VyR1-151" value="&lt;span style=&quot;color: rgb(0, 0, 0); font-family: Helvetica; font-size: 20px; font-style: normal; font-variant-ligatures: normal; font-variant-caps: normal; font-weight: 400; letter-spacing: normal; orphans: 2; text-align: center; text-indent: 0px; text-transform: none; widows: 2; word-spacing: 0px; -webkit-text-stroke-width: 0px; white-space: normal; background-color: rgb(251, 251, 251); text-decoration-thickness: initial; text-decoration-style: initial; text-decoration-color: initial; display: inline !important; float: none;&quot;&gt;CS 490.48&lt;/span&gt;" style="text;whiteSpace=wrap;html=1;" vertex="1" parent="1">
          <mxGeometry x="-3005" y="3540" width="130" height="50" as="geometry" />
        </mxCell>
        <mxCell id="QbFzCAQRqSeKXyy2VyR1-152" value="&lt;span style=&quot;color: rgb(0, 0, 0); font-family: Helvetica; font-size: 20px; font-style: normal; font-variant-ligatures: normal; font-variant-caps: normal; font-weight: 400; letter-spacing: normal; orphans: 2; text-align: center; text-indent: 0px; text-transform: none; widows: 2; word-spacing: 0px; -webkit-text-stroke-width: 0px; white-space: normal; background-color: rgb(251, 251, 251); text-decoration-thickness: initial; text-decoration-style: initial; text-decoration-color: initial; display: inline !important; float: none;&quot;&gt;CS 569.45&lt;/span&gt;" style="text;whiteSpace=wrap;html=1;" vertex="1" parent="1">
          <mxGeometry x="-2627.74" y="2910" width="130" height="50" as="geometry" />
        </mxCell>
        <mxCell id="QbFzCAQRqSeKXyy2VyR1-153" value="&lt;span style=&quot;color: rgb(0, 0, 0); font-family: Helvetica; font-size: 20px; font-style: normal; font-variant-ligatures: normal; font-variant-caps: normal; font-weight: 400; letter-spacing: normal; orphans: 2; text-align: center; text-indent: 0px; text-transform: none; widows: 2; word-spacing: 0px; -webkit-text-stroke-width: 0px; white-space: normal; background-color: rgb(251, 251, 251); text-decoration-thickness: initial; text-decoration-style: initial; text-decoration-color: initial; display: inline !important; float: none;&quot;&gt;CS 564.00&lt;/span&gt;" style="text;whiteSpace=wrap;html=1;" vertex="1" parent="1">
          <mxGeometry x="-2385" y="3299" width="130" height="50" as="geometry" />
        </mxCell>
        <object label="." id="QbFzCAQRqSeKXyy2VyR1-154">
          <mxCell style="shape=mxgraph.pid.vessels.tank,_vessel;html=1;pointerEvents=1;align=center;verticalLabelPosition=top;verticalAlign=bottom;dashed=0;strokeWidth=5;fontSize=30;labelPosition=center;" vertex="1" parent="1">
            <mxGeometry x="-2890" y="2975" width="50" height="70" as="geometry" />
          </mxCell>
        </object>
      </root>
    </mxGraphModel>
  </diagram>
</mxfile>
